<?xml version="1.0" encoding="UTF-8"?>
<!DOCTYPE svg PUBLIC "-//W3C//DTD SVG 1.1//EN" "http://www.w3.org/Graphics/SVG/1.1/DTD/svg11.dtd">
<!-- Creator: CorelDRAW 2020 (64-Bit) -->
<svg xmlns="http://www.w3.org/2000/svg" xml:space="preserve" width="32.4846mm" height="20.2245mm" version="1.1" style="shape-rendering:geometricPrecision; text-rendering:geometricPrecision; image-rendering:optimizeQuality; fill-rule:evenodd; clip-rule:evenodd"
viewBox="0 0 37.23 23.18"
 xmlns:xlink="http://www.w3.org/1999/xlink"
 xmlns:xodm="http://www.corel.com/coreldraw/odm/2003">
 <defs>
  <style type="text/css">
   <![CDATA[
    .fil2 {fill:#2D2A31}
    .fil4 {fill:#AC3335}
    .fil3 {fill:#2D2A31;fill-rule:nonzero}
    .fil1 {fill:#AC3335;fill-rule:nonzero}
    .fil0 {fill:#B3B3B3;fill-rule:nonzero}
   ]]>
  </style>
 </defs>
 <g id="Layer_x0020_1">
  <metadata id="CorelCorpID_0Corel-Layer"/>
  <path class="fil0" d="M3.09 17.96c0.4,-7.43 6.11,-13.71 13.75,-14.58 8.53,-0.98 16.24,5.14 17.22,13.67 0.03,0.3 0.06,0.61 0.08,0.91l1.98 0c0.39,-0.55 0.98,-0.86 0.98,-0.86l-0.11 -0.84 0.25 -0.09 -0.04 -0.37 -1.15 0.56c-0.3,0.08 -0.42,-0.12 -0.47,-0.28 -0,-0.01 -0,-0.02 -0.01,-0.04l0 0.02c-0.03,-1.04 1.03,-1.84 1.03,-1.84l-0.24 -0.81 0.24 -0.13 -0.1 -0.36 -1.05 0.74c-0.27,0.12 -0.42,-0.03 -0.5,-0.18 -0,-0.02 -0.01,-0.03 -0.01,-0.05 -0.18,-1.01 0.73,-1.97 0.73,-1.97l-0.36 -0.76 0.21 -0.16 -0.15 -0.34 -0.92 0.89c-0.25,0.16 -0.42,0.04 -0.52,-0.09 -0.01,-0.02 -0.02,-0.03 -0.02,-0.05 -0.34,-0.97 0.41,-2.06 0.41,-2.06l-0.48 -0.7 0.18 -0.2 -0.2 -0.31 -0.77 1.02c-0.23,0.2 -0.41,0.1 -0.53,-0.02 -0.01,-0.01 -0.02,-0.02 -0.02,-0.04 -0.49,-0.91 0.08,-2.1 0.08,-2.1l-0.58 -0.61 0.15 -0.22 -0.25 -0.27 -0.6 1.13c-0.2,0.24 -0.41,0.16 -0.54,0.05 -0.01,-0.01 -0.02,-0.02 -0.03,-0.03l0.02 0.02c-0.63,-0.82 -0.25,-2.09 -0.25,-2.09l-0.67 -0.52 0.11 -0.24 -0.29 -0.23 -0.42 1.21c-0.16,0.27 -0.38,0.22 -0.52,0.14 -0.01,-0.01 -0.02,-0.02 -0.03,-0.02l0.01 0.01c-0.75,-0.71 -0.58,-2.03 -0.58,-2.03l-0.74 -0.4 0.07 -0.26 -0.32 -0.18 -0.22 1.26c-0.11,0.28 -0.33,0.28 -0.49,0.22 -0.01,-0.01 -0.02,-0.01 -0.03,-0.02l0.01 0c-0.85,-0.59 -0.89,-1.91 -0.89,-1.91l-0.8 -0.28 0.03 -0.27 -0.35 -0.13 -0.02 1.28c-0.06,0.29 -0.27,0.32 -0.43,0.3 -0.02,-0.01 -0.04,-0.01 -0.06,-0.02 -0.92,-0.45 -1.16,-1.74 -1.16,-1.74l-0.83 -0.16 -0.01 -0.27 -0.36 -0.07 0.18 1.27c-0.02,0.3 -0.22,0.36 -0.38,0.36 -0.02,-0 -0.03,-0.01 -0.05,-0.01 -0.99,-0.3 -1.42,-1.54 -1.42,-1.54l-0.85 -0.02 -0.05 -0.26 -0.37 -0.02 0.37 1.23c0.03,0.31 -0.17,0.4 -0.34,0.42 -0.01,0 -0.02,-0 -0.03,-0l0.01 -0c-1.03,-0.13 -1.66,-1.3 -1.66,-1.3l-0.84 0.11 -0.09 -0.25 -0.37 0.04 0.56 1.15c0.08,0.3 -0.11,0.42 -0.27,0.47 -0.01,0 -0.02,0 -0.04,0.01l0.02 -0.01c-1.04,0.03 -1.84,-1.03 -1.84,-1.03l-0.81 0.24 -0.13 -0.24 -0.36 0.1 0.73 1.05c0.12,0.27 -0.03,0.42 -0.17,0.5 -0.02,0.01 -0.03,0.01 -0.05,0.02 -1.01,0.18 -1.97,-0.73 -1.97,-0.73l-0.76 0.36 -0.16 -0.21 -0.34 0.15 0.89 0.92c0.16,0.25 0.04,0.42 -0.09,0.51 -0.02,0.01 -0.03,0.02 -0.05,0.03 -0.97,0.34 -2.06,-0.41 -2.06,-0.41l-0.7 0.48 -0.2 -0.18 -0.31 0.21 1.02 0.77c0.2,0.23 0.1,0.41 -0.02,0.53 -0.01,0.01 -0.02,0.02 -0.04,0.03 -0.91,0.49 -2.1,-0.08 -2.1,-0.08l-0.61 0.58 -0.22 -0.15 -0.27 0.25 1.13 0.6c0.24,0.2 0.16,0.41 0.06,0.54 -0.01,0.01 -0.02,0.02 -0.03,0.03l0.01 -0.02c-0.82,0.63 -2.09,0.25 -2.09,0.25l-0.52 0.67 -0.24 -0.11 -0.23 0.29 1.21 0.42c0.27,0.16 0.22,0.38 0.14,0.52 -0.01,0.01 -0.01,0.02 -0.02,0.03l0.01 -0.01c-0.71,0.75 -2.03,0.58 -2.03,0.58l-0.4 0.74 -0.26 -0.08 -0.18 0.32 1.26 0.22c0.28,0.11 0.28,0.33 0.22,0.49 -0,0.01 -0.01,0.02 -0.02,0.03l0 -0.01c-0.59,0.85 -1.91,0.89 -1.91,0.89l-0.28 0.8 -0.27 -0.03 -0.13 0.35 1.28 0.02c0.29,0.06 0.32,0.27 0.3,0.43 -0.01,0.02 -0.01,0.04 -0.02,0.06 -0.45,0.92 -1.74,1.16 -1.74,1.16l-0.15 0.83 -0.27 0.01 -0.07 0.36 1.27 -0.18c0.3,0.02 0.36,0.22 0.36,0.38 -0,0.02 -0.01,0.04 -0.01,0.05 -0.3,0.99 -1.54,1.42 -1.54,1.42l-0.01 0.31 3.01 0z"/>
  <path class="fil1" d="M19.93 6.79c0,0.5 -0.17,0.93 -0.52,1.27 -0.35,0.35 -0.77,0.52 -1.27,0.52 -0.5,0 -0.93,-0.17 -1.27,-0.52 -0.35,-0.35 -0.52,-0.77 -0.52,-1.27 0,-0.48 0.17,-0.9 0.52,-1.26 0.35,-0.36 0.77,-0.54 1.27,-0.54 0.5,0 0.93,0.18 1.27,0.54 0.35,0.36 0.52,0.78 0.52,1.26z"/>
  <g id="_1286937072">
   <path class="fil2" d="M6.19 5.73c-0.28,0 -0.6,0.02 -0.97,0.05 -0.37,0.03 -0.71,0.13 -1.04,0.28 -0.33,0.15 -0.6,0.38 -0.81,0.68 -0.22,0.3 -0.32,0.72 -0.31,1.26l0 6.85c-0.01,0.54 0.09,0.95 0.31,1.26 0.22,0.3 0.49,0.53 0.81,0.68 0.33,0.15 0.67,0.24 1.04,0.28 0.37,0.03 0.69,0.05 0.97,0.05l3.16 0 0 0.58c-0.16,0.08 -0.37,0.15 -0.61,0.19 -0.24,0.05 -0.58,0.07 -1.01,0.07l-2.01 0c-0.23,0 -0.5,-0.01 -0.8,-0.04 -0.3,-0.02 -0.61,-0.07 -0.93,-0.15 -0.31,-0.08 -0.62,-0.18 -0.93,-0.32 -0.3,-0.14 -0.57,-0.32 -0.8,-0.55 -0.23,-0.23 -0.41,-0.5 -0.55,-0.83 -0.14,-0.33 -0.2,-0.72 -0.19,-1.17l0 -6.95c-0.01,-0.45 0.05,-0.84 0.19,-1.17 0.14,-0.33 0.32,-0.6 0.55,-0.83 0.23,-0.23 0.49,-0.41 0.8,-0.55 0.3,-0.14 0.61,-0.25 0.93,-0.32 0.31,-0.08 0.62,-0.12 0.93,-0.15 0.3,-0.02 0.57,-0.04 0.8,-0.04l2.01 0c0.43,0 0.77,0.02 1.01,0.07 0.24,0.05 0.45,0.11 0.61,0.19l0 0.58 -3.16 0 0 0z"/>
   <path class="fil2" d="M14.6 8.42l1.63 0 0 0.54c-0.16,0.08 -0.37,0.14 -0.61,0.17 -0.24,0.03 -0.58,0.07 -1.01,0.11 -0.28,0.02 -0.57,0.07 -0.88,0.14 -0.31,0.07 -0.59,0.19 -0.84,0.36 -0.25,0.17 -0.45,0.4 -0.61,0.68 -0.16,0.29 -0.23,0.66 -0.22,1.11l0 6.43 -1.56 0 0 -6.45c0,-0.35 0.05,-0.7 0.16,-1.07 0.1,-0.36 0.31,-0.69 0.6,-1 0.3,-0.3 0.71,-0.55 1.25,-0.74 0.54,-0.19 1.23,-0.29 2.1,-0.29l-0 -0z"/>
   <path class="fil3" d="M17.36 8.89l0 9.07 1.56 0 0 -9.02c-0.22,0.1 -0.47,0.15 -0.73,0.15 -0.3,0 -0.58,-0.06 -0.82,-0.19z"/>
   <path class="fil2" d="M23.98 8.45c0.36,0 0.79,0.03 1.28,0.1 0.49,0.06 0.95,0.2 1.39,0.41 0.44,0.21 0.81,0.52 1.11,0.93 0.3,0.41 0.45,0.95 0.44,1.63l0 6.45 -3.46 0c-0.36,0 -0.79,-0.03 -1.28,-0.1 -0.49,-0.06 -0.95,-0.2 -1.39,-0.41 -0.44,-0.21 -0.81,-0.52 -1.11,-0.92 -0.3,-0.4 -0.45,-0.95 -0.44,-1.63 0.01,-0.71 0.2,-1.29 0.57,-1.73 0.37,-0.44 0.84,-0.79 1.42,-1.03 0.58,-0.24 1.23,-0.4 1.95,-0.46 0.72,-0.06 1.45,-0.07 2.18,-0.03l0 -0.07c0.01,-0.54 -0.09,-0.96 -0.31,-1.28 -0.22,-0.31 -0.49,-0.55 -0.81,-0.71 -0.33,-0.16 -0.67,-0.26 -1.03,-0.3 -0.36,-0.04 -0.68,-0.06 -0.96,-0.06l-1.17 0 0 -0.51c0.16,-0.08 0.37,-0.15 0.61,-0.2 0.24,-0.05 0.58,-0.08 1.01,-0.08l0 -0zm2.66 4.04c-0.59,-0.03 -1.16,-0.03 -1.7,0.01 -0.54,0.04 -1.02,0.15 -1.44,0.31 -0.42,0.17 -0.76,0.42 -1.01,0.74 -0.26,0.33 -0.39,0.76 -0.4,1.29 -0.01,0.54 0.09,0.95 0.31,1.26 0.22,0.3 0.49,0.53 0.81,0.68 0.33,0.15 0.67,0.24 1.03,0.28 0.36,0.03 0.68,0.05 0.96,0.05l1.45 0 0 -4.63 -0 0z"/>
   <path class="fil2" d="M33.63 8.42l1.63 0 0 0.54c-0.16,0.08 -0.37,0.14 -0.61,0.17 -0.24,0.03 -0.58,0.07 -1.01,0.11 -0.28,0.02 -0.57,0.07 -0.88,0.14 -0.31,0.07 -0.59,0.19 -0.84,0.36 -0.25,0.17 -0.45,0.4 -0.61,0.68 -0.16,0.29 -0.23,0.66 -0.22,1.11l0 6.43 -1.56 0 0 -6.45c0,-0.35 0.05,-0.7 0.16,-1.07 0.1,-0.36 0.31,-0.69 0.6,-1 0.3,-0.3 0.71,-0.55 1.25,-0.74 0.54,-0.19 1.23,-0.29 2.1,-0.29l-0 -0z"/>
  </g>
  <path class="fil4" d="M3.08 22.36l0 -1.11 -1.18 0 0 1.11 -0.32 0 0 -1.94c0,-0.08 0.01,-0.17 0.03,-0.25 0.02,-0.08 0.06,-0.15 0.12,-0.22 0.06,-0.06 0.16,-0.11 0.28,-0.15 0.12,-0.04 0.28,-0.06 0.48,-0.06 0.2,0 0.36,0.02 0.48,0.06 0.12,0.04 0.21,0.09 0.28,0.15 0.06,0.06 0.11,0.13 0.12,0.22 0.02,0.08 0.03,0.16 0.03,0.25l0 1.94 -0.32 0 0 0zm0 -1.95c0,-0.04 -0.01,-0.09 -0.02,-0.15 -0.01,-0.06 -0.03,-0.11 -0.07,-0.16 -0.04,-0.05 -0.1,-0.09 -0.18,-0.13 -0.08,-0.04 -0.19,-0.05 -0.33,-0.05 -0.14,0 -0.25,0.02 -0.33,0.05 -0.08,0.04 -0.14,0.08 -0.18,0.13 -0.04,0.05 -0.06,0.11 -0.07,0.16 -0.01,0.06 -0.02,0.11 -0.02,0.15l0 0.68 1.18 0 0 -0.68 -0 0zm0.94 0.16l0 1.79 -0.32 0 0 -1.95 0.79 0c0.12,0 0.24,0.02 0.35,0.06 0.11,0.04 0.2,0.09 0.28,0.17 0.08,-0.08 0.17,-0.13 0.28,-0.17 0.11,-0.04 0.22,-0.06 0.35,-0.06 0.1,0 0.2,0.01 0.29,0.04 0.09,0.03 0.18,0.07 0.25,0.12 0.07,0.05 0.13,0.12 0.17,0.19 0.04,0.08 0.07,0.16 0.07,0.26l0 1.34 -0.32 0 0 -1.33c0,-0.13 -0.04,-0.24 -0.12,-0.33 -0.08,-0.08 -0.19,-0.13 -0.34,-0.13 -0.15,0 -0.26,0.04 -0.34,0.13 -0.08,0.09 -0.12,0.19 -0.12,0.33l0 1.33 -0.32 0 0 -1.33c0,-0.13 -0.04,-0.24 -0.12,-0.33 -0.08,-0.08 -0.19,-0.13 -0.34,-0.13l-0.46 0 -0 0zm3.49 -0.12c0.07,0 0.16,0.01 0.26,0.02 0.1,0.01 0.2,0.04 0.29,0.08 0.09,0.04 0.17,0.1 0.23,0.18 0.06,0.08 0.09,0.19 0.09,0.32l0 0.69c0,0.14 -0.03,0.25 -0.09,0.33 -0.06,0.08 -0.14,0.14 -0.23,0.18 -0.09,0.04 -0.19,0.07 -0.29,0.08 -0.1,0.01 -0.19,0.02 -0.26,0.02l-0.72 0 0 -2.62 0.32 0 0 0.71 0.39 0 0 -0zm0.55 0.62c0,-0.11 -0.02,-0.19 -0.06,-0.25 -0.05,-0.06 -0.1,-0.11 -0.17,-0.14 -0.07,-0.03 -0.14,-0.05 -0.21,-0.06 -0.08,-0.01 -0.14,-0.01 -0.2,-0.01l-0.3 0 0 1.58 0.3 0c0.06,0 0.12,-0 0.2,-0.01 0.08,-0.01 0.15,-0.03 0.21,-0.06 0.07,-0.03 0.12,-0.08 0.17,-0.14 0.05,-0.06 0.07,-0.15 0.06,-0.25l0 -0.67 0 0zm0.99 -1.06c0,0.05 -0.02,0.09 -0.05,0.12 -0.04,0.03 -0.08,0.05 -0.13,0.05 -0.05,0 -0.09,-0.02 -0.13,-0.05 -0.04,-0.03 -0.05,-0.08 -0.05,-0.12 0,-0.05 0.02,-0.09 0.05,-0.12 0.04,-0.04 0.08,-0.05 0.13,-0.05 0.05,0 0.09,0.02 0.13,0.05 0.04,0.04 0.05,0.08 0.05,0.12zm-0.02 0.44l-0.32 0 0 1.91 0.32 0 0 -1.91zm1.13 -0.04c0.1,0 0.2,0.02 0.29,0.04 0.09,0.03 0.18,0.07 0.25,0.13 0.07,0.06 0.13,0.12 0.17,0.2 0.04,0.08 0.06,0.17 0.05,0.27 -0,0.09 -0.03,0.17 -0.07,0.23 -0.05,0.07 -0.1,0.12 -0.17,0.16 -0.07,0.04 -0.15,0.08 -0.23,0.11 -0.09,0.03 -0.18,0.04 -0.26,0.05 -0.09,0.01 -0.18,0.01 -0.26,0.01 -0.09,-0 -0.16,-0.02 -0.23,-0.03l0 0.18c0,0.1 0.03,0.18 0.07,0.24 0.05,0.06 0.1,0.1 0.17,0.13 0.07,0.03 0.13,0.05 0.21,0.05 0.07,0.01 0.14,0.01 0.2,0.01l0.15 0 0.24 0 0 0.11c-0.03,0.02 -0.08,0.03 -0.13,0.04 -0.05,0.01 -0.12,0.02 -0.21,0.02l-0.15 0c-0.08,0 -0.16,-0.01 -0.26,-0.02 -0.1,-0.01 -0.2,-0.04 -0.29,-0.08 -0.09,-0.04 -0.17,-0.1 -0.23,-0.18 -0.06,-0.08 -0.09,-0.19 -0.09,-0.33l0 -0.56c0,-0.11 0.02,-0.22 0.05,-0.31 0.04,-0.1 0.09,-0.18 0.16,-0.25 0.07,-0.07 0.15,-0.12 0.25,-0.16 0.1,-0.04 0.21,-0.06 0.34,-0.06l0 0zm0.46 0.63c0,-0.08 -0,-0.14 -0.03,-0.2 -0.02,-0.06 -0.06,-0.11 -0.1,-0.15 -0.04,-0.04 -0.09,-0.07 -0.15,-0.09 -0.06,-0.02 -0.12,-0.03 -0.18,-0.03 -0.15,0 -0.26,0.05 -0.35,0.14 -0.09,0.09 -0.13,0.21 -0.13,0.35l0 0.36c0.13,0.01 0.26,0.01 0.37,0 0.11,-0.01 0.21,-0.03 0.29,-0.06 0.08,-0.03 0.15,-0.07 0.19,-0.13 0.05,-0.05 0.08,-0.12 0.08,-0.2l0 -0zm1.28 -0.59c0.08,0 0.16,0.01 0.26,0.02 0.1,0.01 0.2,0.04 0.29,0.08 0.09,0.04 0.17,0.1 0.23,0.18 0.06,0.08 0.09,0.19 0.09,0.32l0 1.3 -0.32 0 0 -1.29c0,-0.11 -0.02,-0.19 -0.06,-0.25 -0.04,-0.06 -0.1,-0.11 -0.17,-0.14 -0.07,-0.03 -0.14,-0.05 -0.22,-0.06 -0.08,-0.01 -0.14,-0.01 -0.2,-0.01l-0.3 0 0 1.75 -0.32 0 0 -1.91 0.72 0 0 -0zm1.47 1.29c-0,0.09 0.01,0.16 0.05,0.22 0.03,0.06 0.07,0.1 0.12,0.14 0.05,0.03 0.11,0.06 0.17,0.07 0.06,0.01 0.12,0.02 0.18,0.03l0 0.17c-0.05,0 -0.11,-0 -0.17,-0.01 -0.06,-0 -0.12,-0.02 -0.19,-0.03 -0.06,-0.02 -0.13,-0.04 -0.19,-0.06 -0.06,-0.03 -0.11,-0.06 -0.16,-0.11 -0.05,-0.05 -0.08,-0.1 -0.11,-0.17 -0.03,-0.07 -0.04,-0.14 -0.04,-0.23l0 -0.29 0 -0.4 0 -0 0 -0.98 0.32 0 0 0.54c0.09,-0.04 0.18,-0.06 0.28,-0.08 0.1,-0.01 0.18,-0.02 0.25,-0.02l0 0.18c-0.06,0 -0.11,0.01 -0.18,0.02 -0.06,0.01 -0.12,0.03 -0.17,0.06 -0.05,0.03 -0.09,0.07 -0.13,0.12 -0.04,0.05 -0.05,0.12 -0.06,0.2l0 0.62 0 -0zm1.57 -1.33c0.1,0 0.2,0.02 0.29,0.04 0.09,0.03 0.18,0.07 0.25,0.13 0.07,0.06 0.13,0.12 0.17,0.2 0.04,0.08 0.06,0.17 0.05,0.27 -0.01,0.09 -0.03,0.17 -0.07,0.23 -0.05,0.07 -0.1,0.12 -0.17,0.16 -0.07,0.04 -0.15,0.08 -0.23,0.11 -0.09,0.03 -0.18,0.04 -0.26,0.05 -0.09,0.01 -0.18,0.01 -0.26,0.01 -0.09,-0 -0.16,-0.02 -0.23,-0.03l0 0.18c0,0.1 0.03,0.18 0.07,0.24 0.05,0.06 0.1,0.1 0.17,0.13 0.07,0.03 0.13,0.05 0.21,0.05 0.07,0.01 0.14,0.01 0.2,0.01l0.15 0 0.24 0 0 0.11c-0.03,0.02 -0.08,0.03 -0.13,0.04 -0.05,0.01 -0.12,0.02 -0.21,0.02l-0.15 0c-0.08,0 -0.16,-0.01 -0.26,-0.02 -0.1,-0.01 -0.2,-0.04 -0.29,-0.08 -0.09,-0.04 -0.17,-0.1 -0.23,-0.18 -0.06,-0.08 -0.09,-0.19 -0.09,-0.33l0 -0.56c0,-0.11 0.02,-0.22 0.05,-0.31 0.04,-0.1 0.09,-0.18 0.16,-0.25 0.07,-0.07 0.15,-0.12 0.25,-0.16 0.1,-0.04 0.21,-0.06 0.34,-0.06l-0 0zm0.46 0.63c0,-0.08 -0,-0.14 -0.03,-0.2 -0.02,-0.06 -0.06,-0.11 -0.1,-0.15 -0.04,-0.04 -0.09,-0.07 -0.15,-0.09 -0.06,-0.02 -0.12,-0.03 -0.18,-0.03 -0.15,0 -0.26,0.05 -0.34,0.14 -0.08,0.09 -0.13,0.21 -0.13,0.35l0 0.36c0.13,0.01 0.26,0.01 0.37,0 0.11,-0.01 0.21,-0.03 0.29,-0.06 0.08,-0.03 0.15,-0.07 0.19,-0.13 0.05,-0.05 0.08,-0.12 0.08,-0.2l0 -0zm1.19 -0.42c-0.11,0 -0.19,0.02 -0.26,0.07 -0.06,0.05 -0.09,0.11 -0.09,0.19 0,0.07 0.03,0.12 0.08,0.15 0.05,0.04 0.12,0.07 0.21,0.09 0.07,0.02 0.13,0.04 0.2,0.05 0.06,0.02 0.12,0.03 0.17,0.04 0.17,0.04 0.3,0.11 0.4,0.19 0.1,0.08 0.15,0.21 0.16,0.37 0,0.09 -0.01,0.17 -0.04,0.25 -0.03,0.07 -0.07,0.13 -0.13,0.18 -0.06,0.05 -0.12,0.09 -0.2,0.11 -0.08,0.03 -0.16,0.04 -0.24,0.04l-0.9 0 0 -0.11c0.03,-0.02 0.08,-0.03 0.13,-0.04 0.05,-0.01 0.12,-0.02 0.21,-0.02l0.4 0c0.08,0 0.15,-0.01 0.21,-0.03 0.06,-0.02 0.11,-0.05 0.15,-0.09 0.04,-0.04 0.06,-0.08 0.08,-0.13 0.02,-0.05 0.02,-0.09 0.02,-0.14 -0,-0.09 -0.04,-0.16 -0.11,-0.21 -0.07,-0.05 -0.16,-0.09 -0.28,-0.12 -0.02,-0 -0.05,-0.01 -0.09,-0.02 -0.04,-0.01 -0.08,-0.02 -0.12,-0.03 -0.04,-0.01 -0.08,-0.02 -0.12,-0.03 -0.04,-0.01 -0.06,-0.02 -0.08,-0.02 -0.04,-0.01 -0.09,-0.03 -0.14,-0.05 -0.05,-0.02 -0.09,-0.05 -0.13,-0.08 -0.04,-0.03 -0.07,-0.07 -0.1,-0.12 -0.03,-0.05 -0.04,-0.1 -0.04,-0.17 0,-0.09 0.02,-0.16 0.05,-0.22 0.04,-0.06 0.08,-0.11 0.15,-0.15 0.06,-0.04 0.14,-0.07 0.22,-0.09 0.09,-0.02 0.18,-0.03 0.28,-0.03l0.59 0 0 0.11c-0.03,0.02 -0.08,0.03 -0.13,0.04 -0.05,0.01 -0.12,0.02 -0.21,0.02l-0.3 0 -0 -0zm3 -0.87c0.08,0 0.16,0.01 0.26,0.02 0.1,0.01 0.2,0.04 0.29,0.08 0.09,0.04 0.17,0.1 0.23,0.18 0.06,0.08 0.09,0.19 0.09,0.33l0 0.49c0,0.14 -0.03,0.25 -0.09,0.33 -0.06,0.08 -0.14,0.14 -0.23,0.18 -0.09,0.04 -0.19,0.07 -0.29,0.08 -0.1,0.01 -0.19,0.02 -0.26,0.02l-0.62 0 0 0.9 -0.32 0 0 -2.62 0.95 0 0 -0zm0.55 0.62c0,-0.11 -0.02,-0.19 -0.06,-0.25 -0.05,-0.06 -0.1,-0.11 -0.17,-0.14 -0.07,-0.03 -0.14,-0.05 -0.21,-0.06 -0.08,-0.01 -0.14,-0.01 -0.2,-0.01l-0.53 0 0 1.38 0.53 0c0.06,0 0.12,-0 0.2,-0.01 0.08,-0.01 0.15,-0.03 0.21,-0.06 0.07,-0.03 0.12,-0.08 0.17,-0.14 0.05,-0.06 0.07,-0.14 0.06,-0.25l0 -0.47 0 0zm0.91 -0.62l0 2c-0,0.1 0.01,0.17 0.05,0.23 0.04,0.06 0.08,0.11 0.13,0.14 0.05,0.03 0.11,0.06 0.18,0.08 0.07,0.02 0.13,0.02 0.19,0.03l0 0.14c-0.05,0 -0.11,-0 -0.17,-0.01 -0.06,-0 -0.13,-0.02 -0.19,-0.03 -0.07,-0.02 -0.13,-0.04 -0.19,-0.06 -0.06,-0.03 -0.12,-0.06 -0.17,-0.11 -0.05,-0.05 -0.09,-0.1 -0.11,-0.17 -0.03,-0.07 -0.04,-0.14 -0.04,-0.23l0 -2.01 0.32 0 -0 -0zm1.51 0.71c0.08,0 0.16,0.01 0.26,0.02 0.1,0.01 0.2,0.04 0.29,0.08 0.09,0.04 0.17,0.1 0.23,0.19 0.06,0.08 0.09,0.19 0.09,0.33l0 1.29 -0.72 0c-0.08,0 -0.16,-0.01 -0.26,-0.02 -0.1,-0.01 -0.2,-0.04 -0.29,-0.08 -0.09,-0.04 -0.17,-0.1 -0.23,-0.18 -0.06,-0.08 -0.09,-0.19 -0.09,-0.33 0,-0.14 0.04,-0.26 0.12,-0.35 0.08,-0.09 0.17,-0.16 0.29,-0.21 0.12,-0.05 0.26,-0.08 0.4,-0.09 0.15,-0.01 0.3,-0.02 0.45,-0.01l0 -0.01c0,-0.11 -0.02,-0.19 -0.06,-0.26 -0.05,-0.06 -0.1,-0.11 -0.17,-0.14 -0.07,-0.03 -0.14,-0.05 -0.21,-0.06 -0.08,-0.01 -0.14,-0.01 -0.2,-0.01l-0.24 0 0 -0.1c0.03,-0.02 0.08,-0.03 0.13,-0.04 0.05,-0.01 0.12,-0.02 0.21,-0.02l-0 0zm0.55 0.81c-0.12,-0.01 -0.24,-0.01 -0.35,0 -0.11,0.01 -0.21,0.03 -0.3,0.06 -0.09,0.03 -0.16,0.08 -0.21,0.15 -0.05,0.07 -0.08,0.15 -0.08,0.26 -0,0.11 0.02,0.19 0.06,0.25 0.05,0.06 0.1,0.11 0.17,0.14 0.07,0.03 0.14,0.05 0.21,0.06 0.08,0.01 0.14,0.01 0.2,0.01l0.3 0 0 -0.93 -0 -0zm1.33 -0.82c0.08,0 0.16,0.01 0.26,0.02 0.1,0.01 0.2,0.04 0.29,0.08 0.09,0.04 0.17,0.1 0.23,0.18 0.06,0.08 0.09,0.19 0.09,0.32l0 1.3 -0.32 0 0 -1.29c0,-0.11 -0.02,-0.19 -0.06,-0.25 -0.04,-0.06 -0.1,-0.11 -0.17,-0.14 -0.07,-0.03 -0.14,-0.05 -0.22,-0.06 -0.08,-0.01 -0.14,-0.01 -0.2,-0.01l-0.3 0 0 1.75 -0.32 0 0 -1.91 0.72 0 0 -0zm1.93 -0.04c0.1,0 0.2,0.02 0.29,0.04 0.09,0.03 0.18,0.07 0.25,0.13 0.07,0.06 0.13,0.12 0.17,0.2 0.04,0.08 0.06,0.17 0.05,0.27 -0.01,0.09 -0.03,0.17 -0.07,0.23 -0.05,0.07 -0.1,0.12 -0.17,0.16 -0.07,0.04 -0.15,0.08 -0.23,0.11 -0.09,0.03 -0.18,0.04 -0.26,0.05 -0.09,0.01 -0.18,0.01 -0.26,0.01 -0.09,-0 -0.16,-0.02 -0.23,-0.03l0 0.18c0,0.1 0.03,0.18 0.07,0.24 0.05,0.06 0.1,0.1 0.17,0.13 0.07,0.03 0.13,0.05 0.21,0.05 0.07,0.01 0.14,0.01 0.2,0.01l0.15 0 0.24 0 0 0.11c-0.03,0.02 -0.08,0.03 -0.13,0.04 -0.05,0.01 -0.12,0.02 -0.21,0.02l-0.15 0c-0.08,0 -0.16,-0.01 -0.26,-0.02 -0.1,-0.01 -0.2,-0.04 -0.29,-0.08 -0.09,-0.04 -0.17,-0.1 -0.23,-0.18 -0.06,-0.08 -0.09,-0.19 -0.09,-0.33l0 -0.56c0,-0.11 0.02,-0.22 0.05,-0.31 0.04,-0.1 0.09,-0.18 0.16,-0.25 0.07,-0.07 0.15,-0.12 0.25,-0.16 0.1,-0.04 0.21,-0.06 0.34,-0.06l0 0zm0.46 0.63c0,-0.08 -0,-0.14 -0.03,-0.2 -0.02,-0.06 -0.06,-0.11 -0.1,-0.15 -0.04,-0.04 -0.09,-0.07 -0.15,-0.09 -0.06,-0.02 -0.12,-0.03 -0.18,-0.03 -0.15,0 -0.26,0.05 -0.34,0.14 -0.08,0.09 -0.13,0.21 -0.13,0.35l0 0.36c0.13,0.01 0.26,0.01 0.37,0 0.11,-0.01 0.21,-0.03 0.29,-0.06 0.08,-0.03 0.15,-0.07 0.19,-0.13 0.05,-0.05 0.08,-0.12 0.08,-0.2l0 -0zm0.99 -1.03c0,0.05 -0.02,0.09 -0.05,0.12 -0.04,0.03 -0.08,0.05 -0.13,0.05 -0.05,0 -0.09,-0.02 -0.13,-0.05 -0.04,-0.03 -0.05,-0.08 -0.05,-0.12 0,-0.05 0.02,-0.09 0.05,-0.12 0.04,-0.04 0.08,-0.05 0.13,-0.05 0.05,0 0.09,0.02 0.13,0.05 0.04,0.04 0.05,0.08 0.05,0.12zm-0.34 0.44l0 2.1c0,0.1 -0.01,0.17 -0.05,0.23 -0.04,0.06 -0.08,0.1 -0.13,0.14 -0.05,0.03 -0.11,0.05 -0.18,0.07 -0.07,0.01 -0.13,0.02 -0.19,0.02l0 0.16c0.08,0 0.16,-0.01 0.26,-0.02 0.1,-0.01 0.2,-0.04 0.29,-0.08 0.09,-0.04 0.17,-0.1 0.23,-0.18 0.06,-0.08 0.09,-0.19 0.09,-0.33l0 -2.12 -0.32 0 0 0zm1.38 0.01c0.08,0 0.16,0.01 0.26,0.02 0.1,0.01 0.2,0.04 0.29,0.08 0.09,0.04 0.17,0.1 0.23,0.19 0.06,0.08 0.09,0.19 0.09,0.33l0 1.29 -0.72 0c-0.08,0 -0.16,-0.01 -0.26,-0.02 -0.1,-0.01 -0.2,-0.04 -0.29,-0.08 -0.09,-0.04 -0.17,-0.1 -0.23,-0.18 -0.06,-0.08 -0.09,-0.19 -0.09,-0.33 0,-0.14 0.04,-0.26 0.12,-0.35 0.08,-0.09 0.17,-0.16 0.29,-0.21 0.12,-0.05 0.26,-0.08 0.4,-0.09 0.15,-0.01 0.3,-0.02 0.45,-0.01l0 -0.01c0,-0.11 -0.02,-0.19 -0.06,-0.26 -0.05,-0.06 -0.1,-0.11 -0.17,-0.14 -0.07,-0.03 -0.14,-0.05 -0.21,-0.06 -0.08,-0.01 -0.14,-0.01 -0.2,-0.01l-0.24 0 0 -0.1c0.03,-0.02 0.08,-0.03 0.13,-0.04 0.05,-0.01 0.12,-0.02 0.21,-0.02l0 0zm0.55 0.81c-0.12,-0.01 -0.24,-0.01 -0.35,0 -0.11,0.01 -0.21,0.03 -0.3,0.06 -0.09,0.03 -0.16,0.08 -0.21,0.15 -0.05,0.07 -0.08,0.15 -0.08,0.26 -0,0.11 0.02,0.19 0.06,0.25 0.05,0.06 0.1,0.11 0.17,0.14 0.07,0.03 0.14,0.05 0.21,0.06 0.08,0.01 0.14,0.01 0.2,0.01l0.3 0 0 -0.93 -0 -0zm0.6 -0.21c-0,-0.09 0.01,-0.17 0.04,-0.23 0.03,-0.06 0.07,-0.12 0.12,-0.17 0.05,-0.05 0.1,-0.08 0.17,-0.11 0.06,-0.03 0.12,-0.05 0.19,-0.06 0.07,-0.02 0.13,-0.02 0.19,-0.03 0.06,-0 0.12,-0.01 0.17,-0.01l0.4 0 0 -0.71 0.32 0 0 2.62 -0.72 0c-0.08,0 -0.16,-0.01 -0.26,-0.02 -0.1,-0.01 -0.2,-0.04 -0.29,-0.08 -0.09,-0.04 -0.17,-0.1 -0.23,-0.18 -0.06,-0.08 -0.09,-0.19 -0.09,-0.33l0 -0.69 -0 0zm0.32 0.68c-0,0.11 0.02,0.19 0.06,0.25 0.05,0.06 0.1,0.11 0.17,0.14 0.07,0.03 0.14,0.05 0.21,0.06 0.08,0.01 0.14,0.01 0.2,0.01l0.3 0 0 -1.58 -0.3 0c-0.06,0 -0.12,0 -0.2,0.01 -0.08,0.01 -0.15,0.03 -0.21,0.06 -0.07,0.03 -0.12,0.08 -0.17,0.14 -0.05,0.06 -0.07,0.15 -0.06,0.25l0 0.67 0 -0zm2.33 -1.33c0.1,0 0.2,0.01 0.29,0.04 0.09,0.03 0.18,0.07 0.25,0.12 0.07,0.05 0.13,0.12 0.17,0.19 0.04,0.08 0.07,0.16 0.07,0.26l0 0.78c0,0.1 -0.02,0.18 -0.07,0.26 -0.04,0.07 -0.1,0.14 -0.17,0.19 -0.07,0.05 -0.16,0.09 -0.25,0.12 -0.09,0.03 -0.19,0.04 -0.29,0.04 -0.1,0 -0.2,-0.01 -0.29,-0.04 -0.09,-0.03 -0.18,-0.07 -0.25,-0.12 -0.07,-0.05 -0.13,-0.12 -0.17,-0.19 -0.04,-0.08 -0.07,-0.16 -0.07,-0.26l0 -0.78c0,-0.1 0.02,-0.18 0.07,-0.26 0.04,-0.08 0.1,-0.14 0.17,-0.19 0.07,-0.05 0.16,-0.09 0.25,-0.12 0.09,-0.03 0.19,-0.04 0.29,-0.04zm0.46 0.62c0,-0.13 -0.04,-0.24 -0.12,-0.33 -0.08,-0.08 -0.19,-0.13 -0.34,-0.13 -0.15,0 -0.26,0.04 -0.35,0.13 -0.08,0.08 -0.12,0.19 -0.12,0.33l0 0.76c0,0.13 0.04,0.24 0.12,0.33 0.08,0.08 0.19,0.13 0.35,0.13 0.15,0 0.26,-0.04 0.34,-0.13 0.08,-0.08 0.12,-0.19 0.12,-0.33l0 -0.76zm1.22 -0.41c-0.11,0 -0.19,0.02 -0.26,0.07 -0.06,0.05 -0.09,0.11 -0.09,0.19 0,0.07 0.03,0.12 0.08,0.15 0.05,0.04 0.12,0.07 0.21,0.09 0.07,0.02 0.13,0.04 0.2,0.05 0.06,0.02 0.12,0.03 0.17,0.04 0.17,0.04 0.3,0.11 0.4,0.19 0.1,0.08 0.15,0.21 0.16,0.37 0,0.09 -0.01,0.17 -0.04,0.25 -0.03,0.07 -0.07,0.13 -0.13,0.18 -0.06,0.05 -0.12,0.09 -0.2,0.11 -0.08,0.03 -0.16,0.04 -0.24,0.04l-0.9 0 0 -0.11c0.03,-0.02 0.08,-0.03 0.13,-0.04 0.05,-0.01 0.12,-0.02 0.21,-0.02l0.4 0c0.08,0 0.15,-0.01 0.21,-0.03 0.06,-0.02 0.11,-0.05 0.15,-0.09 0.04,-0.04 0.06,-0.08 0.08,-0.13 0.02,-0.05 0.02,-0.09 0.02,-0.14 -0,-0.09 -0.04,-0.16 -0.11,-0.21 -0.07,-0.05 -0.16,-0.09 -0.28,-0.12 -0.02,-0 -0.05,-0.01 -0.09,-0.02 -0.04,-0.01 -0.08,-0.02 -0.12,-0.03 -0.04,-0.01 -0.08,-0.02 -0.12,-0.03 -0.04,-0.01 -0.06,-0.02 -0.08,-0.02 -0.04,-0.01 -0.09,-0.03 -0.14,-0.05 -0.05,-0.02 -0.09,-0.05 -0.13,-0.08 -0.04,-0.03 -0.07,-0.07 -0.1,-0.12 -0.03,-0.05 -0.04,-0.1 -0.04,-0.17 0,-0.09 0.02,-0.16 0.05,-0.22 0.04,-0.06 0.08,-0.11 0.15,-0.15 0.06,-0.04 0.14,-0.07 0.22,-0.09 0.09,-0.02 0.18,-0.03 0.28,-0.03l0.59 0 0 0.11c-0.03,0.02 -0.08,0.03 -0.13,0.04 -0.05,0.01 -0.12,0.02 -0.21,0.02l-0.3 0 -0 -0z"/>
 </g>
</svg>
